<svg
  style="margin: 12px 0 0 34px"
  width="18"
  height="18"
  viewBox="0 0 24 24"
  fill="none"
  xmlns="http://www.w3.org/2000/svg"
>
  <path
    d="M2.25 24L17.25 24C18.5156 24 19.5 22.9687 19.5 21.75L19.5 19.5L21.75 19.5C23.0156 19.5 24 18.4688 24 17.25L24 2.25C24 0.984375 23.0156 -8.60567e-08 21.75 -1.96701e-07L6.75 -1.50804e-06C5.53125 -1.61459e-06 4.5 0.984373 4.5 2.25L4.5 4.5L2.25 4.5C1.03125 4.5 1.79353e-06 5.48437 1.68289e-06 6.75L3.71547e-07 21.75C2.65001e-07 22.9687 1.03125 24 2.25 24ZM7.03125 2.25L21.4688 2.25C21.6563 2.25 21.75 2.34375 21.75 2.53125L21.75 16.9687C21.75 17.1094 21.6563 17.25 21.4688 17.25L19.5 17.25L19.5 6.75C19.5 5.48437 18.5156 4.5 17.25 4.5L6.75 4.5L6.75 2.53125C6.75 2.34375 6.89063 2.25 7.03125 2.25ZM2.53125 6.75L16.9688 6.75C17.1563 6.75 17.25 6.84375 17.25 7.03125L17.25 21.4687C17.25 21.6094 17.1563 21.75 16.9688 21.75L2.53125 21.75C2.39063 21.75 2.25 21.6094 2.25 21.4687L2.25 7.03125C2.25 6.84375 2.39063 6.75 2.53125 6.75Z"
    fill="white"
  />
</svg>