 <svg
  style="margin: 4px 0 0 12px"
  width="18"
  height="18"
  viewBox="0 0 24 24"
  fill="none"
  xmlns="http://www.w3.org/2000/svg"
>
  <path
    d="M2.25 24L15.75 24C17.0156 24 18 22.9687 18 21.75L18 8.25C18 6.98437 17.0156 6 15.75 6L2.25 6C1.03125 6 1.6624e-06 6.98437 1.55176e-06 8.25L3.71547e-07 21.75C2.65001e-07 22.9687 1.03125 24 2.25 24ZM15.75 4.5C17.8594 4.5 19.5 6.14062 19.5 8.25L19.5 18L21.75 18C23.0156 18 24 16.9688 24 15.75L24 2.25C24 0.984375 23.0156 -8.60567e-08 21.75 -1.96701e-07L8.25 -1.37691e-06C7.03125 -1.48345e-06 6 0.984373 6 2.25L6 4.5L15.75 4.5Z"
    fill="black"
  />
</svg>