<svg
  style="margin: 4px 0 0 8px"
  width="9"
  height="14"
  viewBox="0 0 9 14"
  fill="none"
  xmlns="http://www.w3.org/2000/svg"
>
  <path
    d="M8.21289 7.06445C8.20605 6.70215 8.08301 6.41504 7.78906 6.12793L2.6416 1.09668C2.42285 0.884766 2.16992 0.775391 1.85547 0.775391C1.22656 0.775391 0.707031 1.28809 0.707031 1.91016C0.707031 2.22461 0.836914 2.51172 1.07617 2.75098L5.5332 7.05762L1.07617 11.3779C0.836914 11.6104 0.707031 11.8975 0.707031 12.2188C0.707031 12.8408 1.22656 13.3535 1.85547 13.3535C2.16309 13.3535 2.42285 13.251 2.6416 13.0322L7.78906 8.00098C8.08301 7.71387 8.21289 7.41992 8.21289 7.06445Z"
    fill="white"
  />
</svg>