<svg
  syle="margin-left: 4px;"
  width="6"
  height="9"
  viewBox="0 0 6 9"
  fill="none"
  xmlns="http://www.w3.org/2000/svg"
>
  <path
    d="M5.56543 4.82715C5.56104 4.59424 5.48193 4.40967 5.29297 4.2251L1.98389 0.990723C1.84326 0.854492 1.68066 0.78418 1.47852 0.78418C1.07422 0.78418 0.740234 1.11377 0.740234 1.51367C0.740234 1.71582 0.82373 1.90039 0.977539 2.0542L3.84277 4.82275L0.977539 7.6001C0.82373 7.74951 0.740234 7.93408 0.740234 8.14062C0.740234 8.54053 1.07422 8.87012 1.47852 8.87012C1.67627 8.87012 1.84326 8.8042 1.98389 8.66357L5.29297 5.4292C5.48193 5.24463 5.56543 5.05566 5.56543 4.82715Z"
    fill="white"
  />
</svg>